<svg width="63" height="63" viewBox="0 0 63 63" fill="none" xmlns="http://www.w3.org/2000/svg">
<rect width="63" height="63" rx="3.5" fill="#0B1224"/>
<path d="M30.0492 15.6497H31.6457L41.7572 33.4482L34.2771 48.1424H28.0535L20.5586 33.4482L30.0492 15.6497Z" fill="#0167FA"/>
<path d="M3 14.408H17.369V15.6497H3.99045L3 14.408Z" fill="white"/>
<path d="M59.293 48.7634H44.924V47.5217H58.3025L59.293 48.7634Z" fill="white"/>
<path d="M59.293 14.408H44.924V15.6497H58.3025L59.293 14.408Z" fill="white"/>
<path d="M3 48.7634H17.369V47.5217H3.99045L3 48.7634Z" fill="white"/>
<path d="M23.9609 14.408H38.3299V15.6497H23.9609V14.408Z" fill="white"/>
<path d="M38.3281 48.7634H23.9592V47.5217H38.3281V48.7634Z" fill="white"/>
<path d="M36.3066 15.1763L36.3064 15.176L37.4957 17.3521L39.8742 21.7042L44.6313 30.4083L54.1454 47.8167L48.7305 47.95L47.5413 45.7739L45.1628 41.4219L40.4057 32.7177L35.6487 24.0135L33.2702 19.6615L30.8916 15.3094L36.3066 15.1763Z" fill="white"/>
<path d="M51.4595 15.1726L51.4596 15.1723L50.2044 17.4691L47.6939 22.0627L42.6728 31.2499L37.6518 40.4371L35.1413 45.0307L33.886 47.3275L33.2584 48.4759L34.9757 47.923L36.2309 45.6262L38.7414 41.0326L43.7625 31.8454L48.7835 22.6583L51.294 18.0647L52.5493 15.7679L52.8631 15.1937L52.8631 15.1939L51.4595 15.1726Z" fill="white"/>
<path d="M25.9512 15.1763L25.9514 15.176L24.7621 17.3521L22.3836 21.7042L17.6265 30.4083L8.11246 47.8167L13.5273 47.95L14.7165 45.7739L17.0951 41.4219L21.8521 32.7177L26.6091 24.0135L28.9877 19.6615L31.3662 15.3094L25.9512 15.1763Z" fill="white"/>
<path d="M10.7983 15.1726L10.7982 15.1723L12.0534 17.4691L14.564 22.0627L19.585 31.2499L24.606 40.4371L27.1165 45.0307L28.3718 47.3275L28.9994 48.4759L27.2821 47.923L26.0269 45.6262L23.5164 41.0326L18.4953 31.8454L13.4743 22.6583L10.9638 18.0647L9.70854 15.7679L9.39473 15.1937L9.39475 15.1939L10.7983 15.1726Z" fill="white"/>
</svg>
